<mxfile host="app.diagrams.net" modified="2023-06-01T20:51:21.444Z" agent="Mozilla/5.0 (Windows NT 10.0; Win64; x64) AppleWebKit/537.36 (KHTML, like Gecko) Chrome/113.0.0.0 Safari/537.36" etag="lvaps-oqNiP9Xcl3gNpE" version="21.3.2" type="google">
  <diagram name="Pagina-1" id="_Be1CBAwEI0WAhHM08FA">
    <mxGraphModel grid="0" page="0" gridSize="10" guides="1" tooltips="1" connect="1" arrows="1" fold="1" pageScale="1" pageWidth="827" pageHeight="1169" math="0" shadow="0">
      <root>
        <mxCell id="0" />
        <mxCell id="1" parent="0" />
        <mxCell id="GDdZzEikVCgOrEU2IknP-1" value="&#xa;&lt;span style=&quot;color: rgb(0, 0, 0); font-family: Helvetica; font-size: 16px; font-style: normal; font-variant-ligatures: normal; font-variant-caps: normal; font-weight: 400; letter-spacing: normal; orphans: 2; text-align: center; text-indent: 0px; text-transform: none; widows: 2; word-spacing: 0px; -webkit-text-stroke-width: 0px; background-color: rgb(255, 255, 255); text-decoration-thickness: initial; text-decoration-style: initial; text-decoration-color: initial; float: none; display: inline !important;&quot;&gt;Id&lt;/span&gt;&lt;br style=&quot;border-color: var(--border-color); color: rgb(0, 0, 0); font-family: Helvetica; font-size: 16px; font-style: normal; font-variant-ligatures: normal; font-variant-caps: normal; font-weight: 400; letter-spacing: normal; orphans: 2; text-align: center; text-indent: 0px; text-transform: none; widows: 2; word-spacing: 0px; -webkit-text-stroke-width: 0px; background-color: rgb(255, 255, 255); text-decoration-thickness: initial; text-decoration-style: initial; text-decoration-color: initial;&quot;&gt;&lt;span style=&quot;color: rgb(0, 0, 0); font-family: Helvetica; font-size: 16px; font-style: normal; font-variant-ligatures: normal; font-variant-caps: normal; font-weight: 400; letter-spacing: normal; orphans: 2; text-align: center; text-indent: 0px; text-transform: none; widows: 2; word-spacing: 0px; -webkit-text-stroke-width: 0px; background-color: rgb(255, 255, 255); text-decoration-thickness: initial; text-decoration-style: initial; text-decoration-color: initial; float: none; display: inline !important;&quot;&gt;+static id&lt;/span&gt;&lt;br style=&quot;border-color: var(--border-color); color: rgb(0, 0, 0); font-family: Helvetica; font-size: 16px; font-style: normal; font-variant-ligatures: normal; font-variant-caps: normal; font-weight: 400; letter-spacing: normal; orphans: 2; text-align: center; text-indent: 0px; text-transform: none; widows: 2; word-spacing: 0px; -webkit-text-stroke-width: 0px; background-color: rgb(255, 255, 255); text-decoration-thickness: initial; text-decoration-style: initial; text-decoration-color: initial;&quot;&gt;&lt;span style=&quot;color: rgb(0, 0, 0); font-family: Helvetica; font-size: 16px; font-style: normal; font-variant-ligatures: normal; font-variant-caps: normal; font-weight: 400; letter-spacing: normal; orphans: 2; text-align: center; text-indent: 0px; text-transform: none; widows: 2; word-spacing: 0px; -webkit-text-stroke-width: 0px; background-color: rgb(255, 255, 255); text-decoration-thickness: initial; text-decoration-style: initial; text-decoration-color: initial; float: none; display: inline !important;&quot;&gt;+static generareId&lt;/span&gt;&#xa;&#xa;" style="rounded=0;whiteSpace=wrap;html=1;fontSize=16;" vertex="1" parent="1">
          <mxGeometry x="-336" y="-37" width="178" height="108" as="geometry" />
        </mxCell>
        <mxCell id="GDdZzEikVCgOrEU2IknP-4" value="Text" style="text;strokeColor=none;fillColor=none;html=1;align=center;verticalAlign=middle;whiteSpace=wrap;rounded=0;fontSize=16;" vertex="1" parent="1">
          <mxGeometry x="-61" y="175" width="118" height="56" as="geometry" />
        </mxCell>
        <mxCell id="GDdZzEikVCgOrEU2IknP-7" style="edgeStyle=none;curved=1;rounded=0;orthogonalLoop=1;jettySize=auto;html=1;fontSize=12;startSize=8;endSize=8;" edge="1" parent="1" source="GDdZzEikVCgOrEU2IknP-5" target="GDdZzEikVCgOrEU2IknP-8">
          <mxGeometry relative="1" as="geometry">
            <mxPoint x="-2.7999267578125" y="204.4000244140625" as="targetPoint" />
          </mxGeometry>
        </mxCell>
        <mxCell id="GDdZzEikVCgOrEU2IknP-9" style="edgeStyle=none;curved=1;rounded=0;orthogonalLoop=1;jettySize=auto;html=1;fontSize=12;startSize=8;endSize=8;" edge="1" parent="1" source="GDdZzEikVCgOrEU2IknP-5" target="GDdZzEikVCgOrEU2IknP-10">
          <mxGeometry relative="1" as="geometry">
            <mxPoint x="278.800048828125" y="170.00003051757812" as="targetPoint" />
          </mxGeometry>
        </mxCell>
        <mxCell id="GDdZzEikVCgOrEU2IknP-5" value="Produs:&lt;br&gt;-denumire&lt;br&gt;-pret&lt;br&gt;-nr_bucati&lt;br&gt;Meode&lt;br&gt;-constructorul de initializare&lt;br&gt;-destructor virtual&lt;br&gt;-afisare virtual&lt;br&gt;-friend operator afisare" style="rounded=0;whiteSpace=wrap;html=1;fontSize=16;" vertex="1" parent="1">
          <mxGeometry x="17" y="-103" width="263" height="222" as="geometry" />
        </mxCell>
        <mxCell id="GDdZzEikVCgOrEU2IknP-8" value="Carti:&lt;br&gt;-autor&lt;br&gt;-editura&lt;br&gt;Metode:&lt;br&gt;-constructor&lt;br&gt;-afisare&lt;br&gt;-clone&lt;br&gt;-friend operator afisare" style="rounded=0;whiteSpace=wrap;html=1;fontSize=16;" vertex="1" parent="1">
          <mxGeometry x="-62.8" y="174.4" width="214.8" height="151.6" as="geometry" />
        </mxCell>
        <mxCell id="GDdZzEikVCgOrEU2IknP-10" value="Alimente:&lt;br&gt;-categorie&lt;br&gt;Metode:&lt;br&gt;-constructor&lt;br style=&quot;border-color: var(--border-color);&quot;&gt;-afisare&lt;br style=&quot;border-color: var(--border-color);&quot;&gt;-clone&lt;br style=&quot;border-color: var(--border-color);&quot;&gt;-friend operator afisare" style="rounded=0;whiteSpace=wrap;html=1;fontSize=16;" vertex="1" parent="1">
          <mxGeometry x="213" y="174.4" width="206" height="144.6" as="geometry" />
        </mxCell>
        <mxCell id="GDdZzEikVCgOrEU2IknP-28" style="edgeStyle=none;curved=1;rounded=0;orthogonalLoop=1;jettySize=auto;html=1;exitX=0;exitY=0.5;exitDx=0;exitDy=0;fontSize=12;startSize=8;endSize=8;" edge="1" parent="1" source="GDdZzEikVCgOrEU2IknP-12">
          <mxGeometry relative="1" as="geometry">
            <mxPoint x="280" y="9.337693631669481" as="targetPoint" />
          </mxGeometry>
        </mxCell>
        <mxCell id="GDdZzEikVCgOrEU2IknP-12" value="Inventar&lt;br&gt;(descrie produsele din depozit si din magazin)&lt;br&gt;Metode:&lt;br&gt;-static genereareI&lt;br&gt;-addProdus&lt;br&gt;-afisareProduse" style="rounded=0;whiteSpace=wrap;html=1;fontSize=16;" vertex="1" parent="1">
          <mxGeometry x="540.5" y="8" width="222" height="144" as="geometry" />
        </mxCell>
        <mxCell id="GDdZzEikVCgOrEU2IknP-16" value="Customer&lt;br&gt;(cumparatorul)&lt;br&gt;-cumpara produse&lt;br&gt;Metode:&lt;br&gt;-static getInstance&lt;br&gt;-afisare&lt;br&gt;-getNume" style="rounded=0;whiteSpace=wrap;html=1;fontSize=16;" vertex="1" parent="1">
          <mxGeometry x="553.5" y="227" width="196" height="136" as="geometry" />
        </mxCell>
        <mxCell id="GDdZzEikVCgOrEU2IknP-22" style="edgeStyle=none;curved=1;rounded=0;orthogonalLoop=1;jettySize=auto;html=1;exitX=1;exitY=1;exitDx=0;exitDy=0;fontSize=12;startSize=8;endSize=8;" edge="1" parent="1" source="GDdZzEikVCgOrEU2IknP-17">
          <mxGeometry relative="1" as="geometry">
            <mxPoint x="652.4000244140625" y="484" as="targetPoint" />
          </mxGeometry>
        </mxCell>
        <mxCell id="GDdZzEikVCgOrEU2IknP-17" value="Comanda&lt;br&gt;(lista de produse pe care le cumpara un cumparator)&lt;br&gt;Metode:&lt;br&gt;-static getInstance&lt;br&gt;-getC&lt;br&gt;-getP&lt;br&gt;-addProdus&lt;br&gt;-afisare" style="rounded=0;whiteSpace=wrap;html=1;fontSize=16;" vertex="1" parent="1">
          <mxGeometry x="532" y="417" width="239" height="190" as="geometry" />
        </mxCell>
        <mxCell id="GDdZzEikVCgOrEU2IknP-20" value="Functia afisareTotala&lt;br&gt;-afiseaza pretul unui produs din comanda inmultit cu numarul de bucati" style="rounded=0;whiteSpace=wrap;html=1;fontSize=16;" vertex="1" parent="1">
          <mxGeometry x="24" y="415" width="256" height="173" as="geometry" />
        </mxCell>
        <mxCell id="GDdZzEikVCgOrEU2IknP-23" value="exceptie_pret&lt;br&gt;+what&lt;br&gt;+constructor" style="rounded=0;whiteSpace=wrap;html=1;fontSize=16;" vertex="1" parent="1">
          <mxGeometry x="-401" y="176" width="170" height="85" as="geometry" />
        </mxCell>
        <mxCell id="GDdZzEikVCgOrEU2IknP-24" value="exceptie_bucati&lt;br&gt;+what&lt;br&gt;+constructor" style="rounded=0;whiteSpace=wrap;html=1;fontSize=16;" vertex="1" parent="1">
          <mxGeometry x="-398" y="329" width="168" height="92" as="geometry" />
        </mxCell>
        <mxCell id="GDdZzEikVCgOrEU2IknP-26" style="edgeStyle=none;curved=1;rounded=0;orthogonalLoop=1;jettySize=auto;html=1;entryX=0;entryY=0.5;entryDx=0;entryDy=0;fontSize=12;startSize=8;endSize=8;" edge="1" parent="1" source="GDdZzEikVCgOrEU2IknP-25" target="GDdZzEikVCgOrEU2IknP-23">
          <mxGeometry relative="1" as="geometry" />
        </mxCell>
        <mxCell id="GDdZzEikVCgOrEU2IknP-27" style="edgeStyle=none;curved=1;rounded=0;orthogonalLoop=1;jettySize=auto;html=1;exitX=0.5;exitY=1;exitDx=0;exitDy=0;entryX=0.024;entryY=0.576;entryDx=0;entryDy=0;entryPerimeter=0;fontSize=12;startSize=8;endSize=8;" edge="1" parent="1" source="GDdZzEikVCgOrEU2IknP-25" target="GDdZzEikVCgOrEU2IknP-24">
          <mxGeometry relative="1" as="geometry" />
        </mxCell>
        <mxCell id="GDdZzEikVCgOrEU2IknP-25" value="exception" style="rounded=0;whiteSpace=wrap;html=1;fontSize=16;" vertex="1" parent="1">
          <mxGeometry x="-648" y="261" width="120" height="60" as="geometry" />
        </mxCell>
        <mxCell id="GDdZzEikVCgOrEU2IknP-30" value="agregare" style="text;strokeColor=none;fillColor=none;html=1;align=center;verticalAlign=middle;whiteSpace=wrap;rounded=0;fontSize=16;" vertex="1" parent="1">
          <mxGeometry x="376" y="2" width="60" height="30" as="geometry" />
        </mxCell>
        <mxCell id="GDdZzEikVCgOrEU2IknP-31" value="" style="endArrow=classic;html=1;rounded=0;fontSize=12;startSize=8;endSize=8;curved=1;entryX=0.995;entryY=0.696;entryDx=0;entryDy=0;entryPerimeter=0;exitX=0;exitY=0.75;exitDx=0;exitDy=0;" edge="1" parent="1" source="GDdZzEikVCgOrEU2IknP-12" target="GDdZzEikVCgOrEU2IknP-5">
          <mxGeometry width="50" height="50" relative="1" as="geometry">
            <mxPoint x="345" y="158" as="sourcePoint" />
            <mxPoint x="395" y="113" as="targetPoint" />
          </mxGeometry>
        </mxCell>
        <mxCell id="GDdZzEikVCgOrEU2IknP-32" value="asociere" style="text;strokeColor=none;fillColor=none;html=1;align=center;verticalAlign=middle;whiteSpace=wrap;rounded=0;fontSize=16;" vertex="1" parent="1">
          <mxGeometry x="370" y="96" width="60" height="30" as="geometry" />
        </mxCell>
        <mxCell id="GDdZzEikVCgOrEU2IknP-33" value="" style="endArrow=classic;html=1;rounded=0;fontSize=12;startSize=8;endSize=8;curved=1;entryX=1.008;entryY=0.895;entryDx=0;entryDy=0;entryPerimeter=0;" edge="1" parent="1" target="GDdZzEikVCgOrEU2IknP-5">
          <mxGeometry width="50" height="50" relative="1" as="geometry">
            <mxPoint x="589" y="412" as="sourcePoint" />
            <mxPoint x="525" y="443" as="targetPoint" />
          </mxGeometry>
        </mxCell>
        <mxCell id="GDdZzEikVCgOrEU2IknP-34" value="asociere" style="text;strokeColor=none;fillColor=none;html=1;align=center;verticalAlign=middle;whiteSpace=wrap;rounded=0;fontSize=16;" vertex="1" parent="1">
          <mxGeometry x="453" y="240" width="60" height="30" as="geometry" />
        </mxCell>
        <mxCell id="GDdZzEikVCgOrEU2IknP-35" value="" style="endArrow=classic;html=1;rounded=0;fontSize=12;startSize=8;endSize=8;curved=1;entryX=0.574;entryY=0.999;entryDx=0;entryDy=0;entryPerimeter=0;" edge="1" parent="1" target="GDdZzEikVCgOrEU2IknP-16">
          <mxGeometry width="50" height="50" relative="1" as="geometry">
            <mxPoint x="641" y="416" as="sourcePoint" />
            <mxPoint x="691" y="366" as="targetPoint" />
          </mxGeometry>
        </mxCell>
        <mxCell id="GDdZzEikVCgOrEU2IknP-36" value="asociere" style="text;strokeColor=none;fillColor=none;html=1;align=center;verticalAlign=middle;whiteSpace=wrap;rounded=0;fontSize=16;" vertex="1" parent="1">
          <mxGeometry x="664" y="378" width="60" height="30" as="geometry" />
        </mxCell>
      </root>
    </mxGraphModel>
  </diagram>
</mxfile>
